# xmcd
#
# Track frame offsets:
#	150
#	12247
#	27228
#	47165
#	64056
#	82986
#	97269
#	111092
#	130532
#	146888
#	164141
#	183389
#	197637
#	213145
#
# Disc length: 3049 seconds
#
# Revision: 1
# Processed by: cddbd v1.4PL0 Copyright (c) Steve Scherf et al.
# Submitted via: audiograbber 1.81.03
#
DISCID=c50be70e
DTITLE=Tanya Tucker - Tanya Tucker  Disc Four
DYEAR=1994
DGENRE=Country
TTITLE0=It's A Little Too Late
TTITLE1=What Do They Know
TTITLE2=Chasing The American Dream
TTITLE3=Tell Me About It (With Delbert McClinton)
TTITLE4=Two Sparrows In A Hurricane
TTITLE5=Just About Now
TTITLE6=Half The Moon
TTITLE7=You Just Watch Me
TTITLE8=Let The good Times Roll
TTITLE9=We Don't Have To Do This
TTITLE10=Can't Run From Yourself
TTITLE11=Now We're Talking
TTITLE12=Hangin' In
TTITLE13=Soon
EXTD=
EXTT0=
EXTT1=
EXTT2=
EXTT3=
EXTT4=
EXTT5=
EXTT6=
EXTT7=
EXTT8=
EXTT9=
EXTT10=
EXTT11=
EXTT12=
EXTT13=
PLAYORDER=
